<svg width="90" height="90" viewBox="0 0 90 90" fill="none" xmlns="http://www.w3.org/2000/svg">
<g clip-path="url(#clip0_9_456)">
<path d="M26.2891 7.10236L25.4748 5.45572C23.242 6.56061 21.0865 7.86644 19.0682 9.33729L20.1497 10.8216C22.0843 9.41214 24.1497 8.16059 26.2891 7.10236ZM14.7247 15.5255L13.4082 14.2444C11.6674 16.0332 10.0679 17.982 8.65488 20.0362L10.1679 21.0774C11.5226 19.1079 13.0558 17.2403 14.7247 15.5255ZM2.92766 41.1434L1.09809 40.9784C0.87952 43.4069 0.855091 45.9188 1.05373 48.4684L2.88505 48.3248C2.70487 46.0272 2.70579 43.5996 2.92766 41.1434ZM2.40309 33.6009L4.17793 34.0744C4.79406 31.7633 5.61471 29.4902 6.61647 27.3189L4.94835 26.5494C3.90306 28.8162 3.0465 31.1884 2.40309 33.6009ZM2.26984 55.8601C2.88239 58.2763 3.70929 60.6578 4.7272 62.9389L6.40433 62.1901C5.42902 60.0049 4.63711 57.7233 4.05009 55.409L2.26984 55.8601ZM54.697 1.97686C52.2706 1.43199 49.7734 1.09118 47.2748 0.964355L47.1815 2.79843C49.576 2.92039 51.9693 3.24687 54.2943 3.76877L54.697 1.97686ZM40.0041 3.03564L39.7888 1.21149C37.3068 1.50426 34.8378 2.01148 32.4504 2.71862L32.9724 4.48005C35.2598 3.80193 37.6252 3.31584 40.0041 3.03564ZM68.4995 7.68616C66.3869 6.35214 64.148 5.19252 61.8444 4.23962L61.1422 5.93649C63.3489 6.8499 65.4947 7.96112 67.5192 9.23958L68.4995 7.68616ZM78.1589 18.8111L79.6001 17.6721C78.0531 15.7152 76.3285 13.8772 74.4743 12.209L73.2456 13.574C75.0231 15.1735 76.6764 16.9353 78.1589 18.8111ZM8.35136 69.4935C9.73837 71.5638 11.3132 73.5311 13.0329 75.3414L14.3647 74.0768C12.7164 72.3414 11.2065 70.4553 9.87787 68.4711L8.35136 69.4935ZM88.539 38.0524L86.7246 38.3394C87.07 40.5223 87.2449 42.7595 87.2449 44.9881C87.2449 47.3881 87.0422 49.7952 86.6418 52.1427L88.4526 52.4512C88.87 50.0024 89.0816 47.4912 89.0816 44.9881C89.0816 42.6636 88.8991 40.3304 88.539 38.0524ZM72.8555 76.7485L74.0671 78.1287C75.9419 76.4839 77.6889 74.6669 79.2603 72.7288L77.8334 71.5718C76.3276 73.4297 74.6527 75.1714 72.8555 76.7485ZM18.6341 80.3188C20.6359 81.8143 22.7762 83.147 24.9955 84.2793L25.8305 82.6434C23.7036 81.5583 21.6521 80.2811 19.7337 78.847L18.6341 80.3188ZM81.8674 65.6299L83.4691 66.5285C84.6919 64.3496 85.7336 62.0533 86.5659 59.7027L84.8342 59.0901C84.0373 61.3416 83.0391 63.542 81.8674 65.6299ZM86.7413 30.7786C85.9382 28.4203 84.9256 26.1132 83.731 23.9213L82.1185 24.8002C83.2629 26.9006 84.2332 29.1108 85.0023 31.3705L86.7413 30.7786ZM60.6656 84.2336L61.3472 85.9393C63.6588 85.016 65.9104 83.8847 68.0395 82.5771L67.078 81.0121C65.0381 82.2649 62.8808 83.3488 60.6656 84.2336ZM46.6712 87.2008L46.7421 89.0357C49.2411 88.9388 51.7424 88.6285 54.176 88.1133L53.7957 86.316C51.4635 86.8102 49.0663 87.1075 46.6712 87.2008ZM31.9393 87.1021C34.3173 87.8392 36.7804 88.3765 39.2597 88.6994L39.4965 86.8779C37.1212 86.569 34.7611 86.0541 32.4827 85.3479L31.9393 87.1021ZM70.8685 30.5575L75.1585 23.9831L66.0125 14.829L59.4315 19.1258C57.4383 18.007 55.3083 17.1236 53.0863 16.494L51.4697 8.80988H38.5288L36.9208 16.4922C34.7213 17.1097 32.5895 17.994 30.5689 19.1258L23.9941 14.8286L14.8485 23.9831L19.1372 30.5561C18.0162 32.5538 17.1328 34.6838 16.5054 36.9017L8.82174 38.5179V51.4579L16.5054 53.0741C17.1328 55.2919 18.0162 57.422 19.1372 59.4202L14.8485 65.9931L23.9941 75.1477L30.5689 70.8505C32.5885 71.9818 34.7203 72.8656 36.9208 73.4836L38.5288 81.1659H51.4698L53.0864 73.4818C55.3092 72.8522 57.4388 71.9688 59.4316 70.8505L66.0126 75.1472L75.1591 65.9931L70.8686 59.4251C71.9977 57.3995 72.8793 55.2677 73.4955 53.0741L81.1778 51.4579V38.5179L73.4955 36.9022C72.8783 34.7049 71.9967 32.5754 70.8685 30.5575ZM79.341 49.9674L72.0093 51.5096L71.8667 52.0607C71.2429 54.4669 70.2779 56.8 68.999 58.9955L68.7138 59.4857L72.8057 65.7492L65.7677 72.7939L59.488 68.6936L58.9969 68.9819C56.8463 70.2461 54.5154 71.2128 52.0697 71.8554L51.5208 71.9998L49.9791 79.3293H40.0212L38.4862 71.9976L37.9346 71.8545C35.5208 71.2289 33.1881 70.2626 31.0016 68.9815L30.511 68.694L24.2389 72.7935L17.2009 65.7493L21.2936 59.4763L21.0057 58.9857C19.738 56.8279 18.7712 54.497 18.1322 52.0585L17.9883 51.5092L10.6585 49.9675V40.0085L17.9883 38.4673L18.1322 37.918C18.7712 35.4785 19.738 33.1482 21.0057 30.9912L21.2941 30.5006L17.2009 24.2272L24.2389 17.1829L30.511 21.2824L31.0016 20.995C33.189 19.7134 35.5217 18.7466 37.9346 18.1215L38.4862 17.9784L40.0212 10.6467H49.9793L51.521 17.9762L52.0699 18.1206C54.5147 18.7627 56.8456 19.7299 58.9971 20.9945L59.4882 21.2829L65.7679 17.1825L72.8063 24.2272L68.7136 30.4993L69.0002 30.9895C70.2772 33.1742 71.2418 35.5046 71.8669 37.9158L72.0096 38.4669L79.3412 40.0086L79.341 49.9674Z" fill="white"/>
<path d="M45.0004 22.9169C32.9136 22.9169 23.0806 32.8176 23.0806 44.9868C23.0806 56.8912 32.6825 67.0567 45.0004 67.0567C50.5356 67.0567 54.6622 65.1359 58.3377 62.4968V62.48C63.7117 58.3188 66.912 51.8198 66.912 44.9868C66.9121 32.8176 57.0827 22.9169 45.0004 22.9169ZM40.022 64.5768V56.6579H38.1853V64.0057C36.3725 63.3489 34.9538 62.5782 33.4997 61.5488V52.1997C33.4997 51.0137 34.4647 50.0487 35.6507 50.0487H54.3418C55.5324 50.0487 56.501 51.0137 56.501 52.1997V61.5489C54.8197 62.7416 53.4325 63.4181 51.8154 64.0055V56.658H49.9787V64.577C46.7631 65.4122 43.2488 65.4142 40.022 64.5768ZM58.3378 60.0897V52.1997C58.3378 50.0007 56.5454 48.2119 54.3419 48.2119H35.6508C33.4518 48.2119 31.663 50.0007 31.663 52.1997V60.092C27.4129 56.2775 24.9174 50.7637 24.9174 44.9869C24.9174 33.8302 33.9267 24.7537 45.0005 24.7537C56.0697 24.7537 65.0754 33.8302 65.0754 44.9869C65.0753 50.7603 62.5832 56.2727 58.3378 60.0897Z" fill="white"/>
<path d="M45 30.0328C40.8866 30.0328 37.5401 33.3794 37.5401 37.4927C37.5401 41.6061 40.8866 44.9523 45 44.9523C49.1134 44.9523 52.4595 41.6061 52.4595 37.4927C52.4595 33.3794 49.1134 30.0328 45 30.0328ZM45 43.1156C41.8991 43.1156 39.3768 40.5932 39.3768 37.4928C39.3768 34.392 41.8992 31.8697 45 31.8697C48.1004 31.8697 50.6228 34.3921 50.6228 37.4928C50.6227 40.5932 48.1003 43.1156 45 43.1156Z" fill="white"/>
</g>
<defs>
<clipPath id="clip0_9_456">
<rect width="90" height="90" fill="white"/>
</clipPath>
</defs>
</svg>
