<svg width="90" height="90" viewBox="0 0 90 90" fill="none" xmlns="http://www.w3.org/2000/svg">
<path d="M77.616 22.1761C78.075 22.3291 78.561 22.4101 79.065 22.4101C81.675 22.4101 83.799 20.2861 83.799 17.6671C83.799 16.0021 82.935 14.5351 81.63 13.7071C81.936 11.8891 81.675 10.3681 80.829 9.18905C78.615 6.07505 72.693 6.04805 64.143 9.09005C61.6107 6.80831 58.6907 4.99781 55.521 3.74405C52.2378 2.45738 48.7423 1.79798 45.216 1.80005C37.935 1.80005 31.293 4.56305 26.28 9.09905C17.739 6.04805 11.817 6.07505 9.603 9.18905C7.083 12.6991 9.738 19.2061 17.055 27.5041C16.983 28.3591 16.938 29.2141 16.938 30.0871C16.938 33.4621 17.532 36.7471 18.657 39.8251C17.91 40.6981 14.976 43.7851 12.402 47.7271C11.943 47.5651 11.439 47.4841 10.926 47.4841C9.86532 47.4849 8.83568 47.8421 8.00246 48.4985C7.16924 49.1548 6.58078 50.0722 6.3316 51.1032C6.08241 52.1342 6.18696 53.219 6.62846 54.1834C7.06995 55.1478 7.82277 55.9359 8.766 56.4211C8.649 57.8521 8.919 59.0491 9.585 59.9941C10.719 61.5691 12.789 62.3521 15.651 62.3521C19.62 62.3521 25.092 60.8581 31.68 57.9061C31.752 57.8701 31.815 57.8431 31.887 57.8161C31.932 57.9061 31.977 58.0051 32.022 58.0951C32.094 58.2841 32.184 58.4731 32.256 58.6621C32.292 58.7701 32.319 58.8781 32.355 58.9771C31.4867 59.2224 30.7223 59.7446 30.178 60.4643C29.6338 61.184 29.3395 62.0618 29.34 62.9641C29.34 64.2781 29.952 65.4481 30.915 66.1951C30.4233 66.5798 30.0259 67.0715 29.753 67.633C29.4801 68.1945 29.3388 68.8108 29.34 69.4351C29.34 70.7491 29.952 71.9191 30.915 72.6751C30.4228 73.0573 30.0249 73.5473 29.7518 74.1074C29.4788 74.6676 29.3379 75.2829 29.34 75.9061C29.34 78.1831 31.194 80.0461 33.48 80.0461H34.803C35.46 84.8431 39.636 88.2001 45.216 88.2001C50.796 88.2001 54.972 84.8431 55.629 80.0461H56.952C59.229 80.0461 61.083 78.1831 61.083 75.9061C61.083 74.5921 60.471 73.4221 59.508 72.6751C59.9997 72.2904 60.3971 71.7986 60.67 71.2371C60.9429 70.6757 61.0842 70.0593 61.083 69.4351C61.083 68.1211 60.471 66.9511 59.508 66.1951C60.0002 65.8129 60.3981 65.3228 60.6712 64.7627C60.9442 64.2025 61.0851 63.5872 61.083 62.9641C61.083 61.0651 59.805 59.4631 58.068 58.9771C58.239 58.4911 58.491 57.8971 58.527 57.7981C59.346 58.2031 62.352 59.4811 64.854 60.3271C64.836 60.4711 64.827 60.6241 64.827 60.7681C64.827 63.3781 66.942 65.5021 69.552 65.5021C71.613 65.5021 73.368 64.1791 74.016 62.3341C74.277 62.3431 74.529 62.3521 74.781 62.3521C77.643 62.3521 79.713 61.5691 80.838 59.9941C84.564 54.7831 75.555 44.5231 71.703 39.9871C73.1176 36.2141 73.7009 32.1802 73.413 28.1611C73.404 27.9451 73.386 27.7291 73.368 27.5221L73.377 27.5131C75.033 25.6411 76.446 23.8591 77.616 22.1761ZM81.999 17.6671C81.999 19.2961 80.685 20.6101 79.065 20.6101C78.93 20.6101 78.795 20.6011 78.669 20.5741C77.256 20.3941 76.14 19.1611 76.14 17.6671C76.14 16.0561 77.454 14.7421 79.065 14.7421C80.64 14.7421 81.999 16.0201 81.999 17.6671ZM27.594 10.3411C32.274 6.14705 38.457 3.60005 45.216 3.60005C58.743 3.60005 69.93 13.8061 71.496 26.9281C64.35 34.8661 54.522 42.6241 45.216 48.5101C45.126 48.4471 29.889 39.1321 18.936 26.9101C19.719 20.3491 22.914 14.5261 27.594 10.3411ZM56.871 57.0331L56.88 57.0421C56.718 57.4021 56.385 58.2301 56.196 58.8241H34.227C34.029 58.2211 33.804 57.6271 33.543 57.0421C37.305 55.2691 41.22 53.1091 45.207 50.6341C48.321 52.4521 51.039 54.2791 56.871 57.0331ZM17.379 25.1101C11.682 18.3421 9.27 12.7261 11.061 10.2331C12.663 7.99205 17.766 8.10005 24.831 10.5031H24.84C21.042 14.4541 18.387 19.5031 17.379 25.1101ZM9.117 54.5131C8.76813 54.2391 8.48629 53.8892 8.29291 53.4899C8.09954 53.0907 7.9997 52.6526 8.001 52.2091C8.001 49.5811 11.205 48.3121 13.023 50.1661C13.536 50.6971 13.86 51.4081 13.86 52.2091C13.86 54.6841 10.998 56.0251 9.117 54.5131ZM30.96 56.2591C20.763 60.8311 13.131 61.8571 11.052 58.9501C10.683 58.4281 10.512 57.7441 10.521 56.9341C11.1749 56.989 11.833 56.9076 12.4538 56.6951C13.0746 56.4826 13.6445 56.1435 14.1275 55.6994C14.6105 55.2553 14.9961 54.7158 15.2599 54.115C15.5237 53.5142 15.6599 52.8652 15.66 52.2091C15.66 50.7691 15.012 49.4821 13.995 48.6091C16.173 45.2881 18.468 42.8131 19.413 41.6701C21.2568 45.7774 24.0555 49.3846 27.576 52.1911C28.998 53.3251 30.168 54.6931 31.068 56.2051L30.96 56.2591ZM28.701 50.7871C25.5916 48.3072 23.0811 45.1583 21.3562 41.5745C19.6313 37.9908 18.7364 34.0643 18.738 30.0871C18.738 29.8531 18.747 29.6191 18.756 29.3851C22.275 33.1471 26.325 36.8191 30.573 40.2391C34.812 43.6591 39.249 46.8271 43.515 49.5541C39.816 51.8221 36.198 53.7931 32.715 55.4311C31.6721 53.6507 30.3116 52.0767 28.701 50.7871ZM45.216 86.4001C40.608 86.4001 37.251 83.8531 36.603 80.0461H53.829C53.181 83.8531 49.824 86.4001 45.216 86.4001ZM56.952 78.2461H33.48C32.193 78.2461 31.14 77.1931 31.14 75.9061C31.14 74.6191 32.193 73.5751 33.48 73.5751H56.952C58.239 73.5751 59.283 74.6191 59.283 75.9061C59.283 77.1931 58.239 78.2461 56.952 78.2461ZM56.952 71.7751H33.48C32.193 71.7751 31.14 70.7221 31.14 69.4351C31.14 68.1481 32.193 67.0951 33.48 67.0951H56.952C57.571 67.0974 58.1639 67.345 58.6008 67.7836C59.0377 68.2222 59.283 68.816 59.283 69.4351C59.283 70.7221 58.239 71.7751 56.952 71.7751ZM59.283 62.9641C59.283 63.2702 59.2227 63.5733 59.1056 63.8561C58.9884 64.1389 58.8167 64.3959 58.6003 64.6123C58.3838 64.8288 58.1268 65.0005 57.844 65.1176C57.5612 65.2348 57.2581 65.2951 56.952 65.2951H33.48C32.193 65.2951 31.14 64.2511 31.14 62.9641C31.14 61.6771 32.193 60.6241 33.48 60.6241H56.952C58.239 60.6241 59.283 61.6771 59.283 62.9641ZM57.708 55.4401C46.503 49.7521 50.526 51.5611 46.908 49.5721C55.557 44.0191 64.647 36.9001 71.676 29.3941C71.892 37.7371 68.265 45.3781 62.046 50.5081C60.237 52.0021 59.004 53.2531 57.708 55.4401ZM69.552 63.7021C67.986 63.7021 66.708 62.4691 66.636 60.9121C66.627 60.8671 66.627 60.8131 66.627 60.7681C66.6257 60.0222 66.9092 59.3039 67.4197 58.76C67.9301 58.2161 68.629 57.8877 69.3735 57.8417C70.118 57.7957 70.8519 58.0358 71.4254 58.5127C71.9988 58.9897 72.3686 59.6677 72.459 60.4081C72.711 62.0461 71.379 63.7021 69.552 63.7021ZM79.371 58.9501C78.525 60.1381 76.761 60.6691 74.277 60.5701C74.2271 59.3503 73.7074 58.1972 72.8268 57.3518C71.9462 56.5063 70.7727 56.0342 69.552 56.0341C68.6844 56.0336 67.8336 56.2729 67.0935 56.7255C66.3534 57.1782 65.7528 57.8265 65.358 58.5991C63.099 57.8251 60.39 56.6911 59.364 56.1961C60.48 54.3331 61.632 53.1811 63.117 51.9571C66.528 49.1761 69.174 45.7021 70.947 41.8231L70.956 41.8321C77.967 49.6531 81.27 56.3041 79.371 58.9501ZM73.053 25.1191L73.044 25.1281C72.0614 19.6214 69.4645 14.5309 65.583 10.5031C65.592 10.4941 65.592 10.4941 65.601 10.4941C72.675 8.10005 77.769 7.99205 79.362 10.2331C79.866 10.9351 80.037 11.8801 79.893 13.0231C79.623 12.9691 79.344 12.9421 79.065 12.9421C76.464 12.9421 74.34 15.0571 74.34 17.6671C74.34 19.1161 74.988 20.4211 76.014 21.2941C75.0852 22.613 74.0972 23.8894 73.053 25.1191Z" fill="white"/>
<path d="M60.768 28.548L58.689 27.513C58.941 25.839 58.887 24.165 58.509 22.509L60.507 21.312C61.182 20.916 61.443 20.079 61.119 19.368L60.246 17.469C60.0891 17.1263 59.8116 16.8534 59.4663 16.7024C59.121 16.5513 58.7322 16.5327 58.374 16.65L56.16 17.397C55.17 16.047 53.919 14.877 52.506 13.986L53.082 11.727C53.271 10.971 52.866 10.188 52.137 9.91803L50.175 9.18903C49.437 8.91003 48.627 9.23403 48.276 9.93603L47.232 12.024C45.576 11.772 43.866 11.835 42.237 12.204L41.049 10.197C40.8554 9.87312 40.5487 9.63231 40.1881 9.52098C39.8276 9.40964 39.4385 9.43567 39.096 9.59403L37.197 10.458C36.486 10.791 36.135 11.592 36.378 12.33L37.116 14.544C35.7583 15.5392 34.601 16.782 33.705 18.207L31.455 17.631C30.69 17.433 29.916 17.847 29.646 18.576L28.917 20.538C28.647 21.267 28.962 22.086 29.664 22.428L31.743 23.472C31.491 25.146 31.554 26.82 31.932 28.476L29.925 29.664C29.25 30.069 28.989 30.906 29.313 31.608L30.186 33.516C30.51 34.227 31.32 34.578 32.058 34.326L34.272 33.588C35.262 34.938 36.513 36.108 37.935 36.999L37.359 39.249C37.161 40.014 37.566 40.788 38.304 41.058C39.15 41.175 41.229 42.876 42.165 41.04L43.2 38.961C44.856 39.213 46.566 39.15 48.195 38.781C48.888 39.627 49.536 42.237 51.336 41.391C52.11 40.869 54.666 40.518 54.054 38.655L53.316 36.441C54.6737 35.4459 55.831 34.2031 56.727 32.778L58.986 33.354C59.742 33.543 60.516 33.138 60.786 32.409L61.515 30.447C61.794 29.718 61.47 28.899 60.768 28.548ZM59.526 31.932C59.49 32.022 59.4 32.058 59.319 32.04L56.574 31.347C56.4322 31.3099 56.282 31.3206 56.147 31.3776C56.0119 31.4345 55.8994 31.5345 55.827 31.662C54.9112 33.2433 53.6497 34.597 52.137 35.622C51.894 35.793 51.786 36.108 51.876 36.387C52.65 38.898 52.956 39.168 52.677 39.294C50.859 40.068 50.688 40.338 50.553 40.095L49.104 37.656C49.0281 37.5301 48.9133 37.4322 48.777 37.377C48.6407 37.3218 48.4902 37.3124 48.348 37.35C46.593 37.818 44.73 37.89 42.948 37.548C42.651 37.485 42.354 37.638 42.219 37.908L40.959 40.437C40.938 40.476 40.9039 40.5064 40.8628 40.5228C40.8217 40.5393 40.7761 40.5408 40.734 40.527L38.772 39.789C38.7309 39.775 38.6967 39.7457 38.6766 39.7071C38.6565 39.6686 38.652 39.6238 38.664 39.582L39.366 36.846C39.4021 36.7042 39.3908 36.5545 39.334 36.4196C39.2771 36.2848 39.1777 36.1722 39.051 36.099C37.47 35.1828 36.1164 33.9215 35.091 32.409C35.03 32.3171 34.947 32.2418 34.8496 32.1899C34.7522 32.138 34.6434 32.1113 34.533 32.112C34.461 32.112 34.389 32.13 34.317 32.148L31.626 33.048C31.5865 33.0616 31.5433 33.0598 31.505 33.0432C31.4668 33.0265 31.4361 32.9962 31.419 32.958L30.546 31.05C30.51 30.969 30.537 30.87 30.618 30.825L33.048 29.376C33.309 29.223 33.435 28.917 33.354 28.62C32.877 26.838 32.814 25.02 33.156 23.22C33.219 22.923 33.066 22.617 32.796 22.491L30.267 21.222C30.186 21.186 30.15 21.096 30.186 21.006L30.915 19.044C30.942 18.963 31.032 18.918 31.122 18.936L33.858 19.638C34.155 19.719 34.461 19.584 34.605 19.323C35.523 17.73 36.765 16.398 38.295 15.363C38.547 15.192 38.655 14.877 38.556 14.589L37.665 11.898C37.638 11.817 37.674 11.727 37.755 11.691L39.663 10.818C39.744 10.782 39.834 10.809 39.888 10.89L41.328 13.329C41.481 13.59 41.796 13.716 42.084 13.635C43.839 13.158 45.702 13.095 47.484 13.437C47.781 13.5 48.087 13.347 48.213 13.077L49.482 10.539C49.527 10.458 49.617 10.422 49.698 10.449L51.66 11.178C51.75 11.214 51.795 11.304 51.768 11.394L51.075 14.139C50.994 14.427 51.129 14.733 51.39 14.886C52.9661 15.8016 54.3163 17.0596 55.341 18.567C55.512 18.819 55.827 18.927 56.115 18.828L58.806 17.937C58.887 17.901 58.977 17.946 59.022 18.027L59.886 19.935C59.931 20.016 59.895 20.106 59.823 20.151L57.384 21.609C57.123 21.762 56.997 22.068 57.078 22.356C57.555 24.138 57.618 25.956 57.276 27.765C57.222 28.062 57.366 28.359 57.636 28.494L60.165 29.754C60.246 29.799 60.282 29.889 60.255 29.979L59.526 31.932Z" fill="white"/>
<path d="M48.132 17.658C47.1051 17.2704 46.0114 17.0907 44.9144 17.1293C43.8175 17.1679 42.7391 17.4241 41.742 17.883C40.2393 18.5712 38.9743 19.6893 38.1068 21.096C37.2393 22.5028 36.8081 24.1351 36.8678 25.7868C36.9276 27.4385 37.4754 29.0354 38.4423 30.3759C39.4091 31.7163 40.7516 32.7401 42.3 33.318C46.773 34.947 51.498 32.598 53.046 28.404C54.657 24.084 52.452 19.26 48.132 17.658ZM51.786 27.927C50.436 31.545 46.395 33.399 42.777 32.049C39.132 30.681 37.305 26.658 38.655 23.04C39.312 21.285 40.608 19.89 42.309 19.116C47.952 16.542 53.955 22.077 51.786 27.927Z" fill="white"/>
</svg>
